<svg xmlns="http://www.w3.org/2000/svg" xmlns:xlink="http://www.w3.org/1999/xlink" width="253.737" height="118.476" viewBox="0 0 253.737 118.476"><defs><style>.a{fill:url(#a);}</style><linearGradient id="a" x1="-0.262" y1="0.402" x2="0.848" y2="0.402" gradientUnits="objectBoundingBox"><stop offset="0" stop-color="#00c2ff"/><stop offset="1" stop-color="#0973ff"/></linearGradient></defs><g transform="translate(-332.675 -2391)"><path class="a" d="M128.438,58.275A25.388,25.388,0,1,0,103.05,32.888,25.282,25.282,0,0,0,128.438,58.275Zm-67.7,0A25.388,25.388,0,1,0,35.35,32.888,25.282,25.282,0,0,0,60.738,58.275Zm0,16.925C41.02,75.2,1.5,85.1,1.5,104.819v21.156H119.976V104.819C119.976,85.1,80.455,75.2,60.738,75.2Zm67.7,0c-2.454,0-5.247.169-8.209.423,9.817,7.109,16.671,16.671,16.671,29.2v21.156h50.775V104.819C187.676,85.1,148.156,75.2,128.438,75.2Z" transform="translate(398.736 2383.5)"/><path class="a" d="M116.577,58.275c-13.675,0-24.631-11.34-24.631-25.388S102.9,7.5,116.577,7.5s24.713,11.34,24.713,25.388S130.251,58.275,116.577,58.275Zm0,16.925c2.389,0,5.107.169,7.991.423-9.556,7.109-16.228,16.671-16.228,29.2v21.156H58.913V104.819C58.913,85.1,97.383,75.2,116.577,75.2Z" transform="translate(273.762 2383.5)"/></g></svg>