<svg xmlns="http://www.w3.org/2000/svg" xmlns:xlink="http://www.w3.org/1999/xlink" width="196.568" height="196.402" viewBox="0 0 196.568 196.402"><defs><style>.a{fill:url(#a);}</style><linearGradient id="a" x1="0.342" y1="0.67" x2="0.932" gradientUnits="objectBoundingBox"><stop offset="0" stop-color="#00c2ff"/><stop offset="1" stop-color="#0a74ff"/></linearGradient></defs><g transform="translate(-3.366 -3.372)"><path class="a" d="M198.9,6.037a2.086,2.086,0,0,0-1.559-1.606c-25.7-6.283-85.076,16.108-117.245,48.277a139.05,139.05,0,0,0-15.636,18.47c-9.92-.9-19.84-.142-28.3,3.543-23.855,10.487-30.8,37.885-32.736,49.647a4.232,4.232,0,0,0,4.629,4.913l38.31-4.2a85.164,85.164,0,0,0,.52,8.645,8.574,8.574,0,0,0,2.5,5.243L64.223,153.8a8.574,8.574,0,0,0,5.243,2.5,85,85,0,0,0,8.6.52l-4.2,38.263a4.231,4.231,0,0,0,4.913,4.629c11.762-1.89,39.208-8.833,49.647-32.689,3.685-8.456,4.44-18.328,3.59-28.2a139.273,139.273,0,0,0,18.517-15.636C182.837,91.065,205.087,33.01,198.9,6.037ZM121.806,81.571a20.175,20.175,0,1,1,28.532,0A20.157,20.157,0,0,1,121.806,81.571Z" transform="translate(0 0)"/><path class="a" d="M49.34,46.266h0c-1.984,1.984-5.527,3.118-9.353,3.779A12.715,12.715,0,0,1,25.343,35.4c.661-3.826,1.748-7.369,3.732-9.306l.047-.047A1.579,1.579,0,0,0,27.8,23.355a21.715,21.715,0,0,0-12.707,6.188C6.59,38.047,5.787,69.6,5.787,69.6s31.6-.8,40.105-9.306A21.572,21.572,0,0,0,52.08,47.589,1.616,1.616,0,0,0,49.34,46.266Z" transform="translate(13.843 114.192)"/></g></svg>