<svg xmlns="http://www.w3.org/2000/svg" xmlns:xlink="http://www.w3.org/1999/xlink" width="127.126" height="184.915" viewBox="0 0 127.126 184.915"><defs><style>.a{fill:url(#a);}</style><linearGradient id="a" x1="0.5" x2="0.5" y2="1" gradientUnits="objectBoundingBox"><stop offset="0" stop-color="#01bbff"/><stop offset="1" stop-color="#015e80"/></linearGradient></defs><path class="a" d="M34.693,164.091a11.562,11.562,0,0,0,1.936,6.389l6.172,9.278a11.553,11.553,0,0,0,9.621,5.157H74.708a11.553,11.553,0,0,0,9.621-5.157L90.5,170.48a11.553,11.553,0,0,0,1.936-6.389l.014-13.85H34.674l.018,13.85ZM0,63.563a63.209,63.209,0,0,0,15.732,41.814c5.966,6.808,15.3,21.03,18.856,33.028.014.094.025.188.04.282H92.5c.014-.094.025-.184.04-.282,3.557-12,12.89-26.22,18.856-33.028A63.529,63.529,0,0,0,63.365,0C26.523.112,0,29.965,0,63.563ZM63.563,34.671A28.926,28.926,0,0,0,34.671,63.563a5.778,5.778,0,1,1-11.557,0A40.494,40.494,0,0,1,63.563,23.114a5.778,5.778,0,1,1,0,11.557Z"/></svg>